<svg xmlns="http://www.w3.org/2000/svg" xmlns:xlink="http://www.w3.org/1999/xlink" preserveAspectRatio="xMidYMid" width="54" height="61" viewBox="0 0 54 61">
  <defs>
    <style>

      .cls-2 {
        fill: #d1d5d7;
      }
    </style>
  </defs>
  <path d="M49.740,9.579 C49.740,9.579 47.426,2.617 47.426,2.617 C46.907,1.062 45.453,0.012 43.812,0.012 C43.812,0.012 9.524,0.012 9.524,0.012 C7.884,0.012 6.429,1.062 5.910,2.617 C5.910,2.617 3.577,9.584 3.577,9.584 C1.589,9.712 -0.000,11.326 -0.000,13.346 C-0.000,13.346 -0.000,19.061 -0.000,19.061 C-0.000,21.165 1.706,22.871 3.810,22.871 C3.810,22.871 5.780,22.871 5.780,22.871 C5.780,23.014 5.722,23.148 5.739,23.291 C5.739,23.291 9.548,57.579 9.548,57.579 C9.762,59.508 11.392,60.968 13.334,60.968 C13.334,60.968 40.002,60.968 40.002,60.968 C41.944,60.968 43.574,59.508 43.788,57.579 C43.788,57.579 47.597,23.291 47.597,23.291 C47.614,23.148 47.556,23.014 47.556,22.871 C47.556,22.871 49.526,22.871 49.526,22.871 C51.630,22.871 53.336,21.165 53.336,19.061 C53.336,19.061 53.336,13.346 53.336,13.346 C53.336,11.319 51.738,9.697 49.740,9.579 ZM9.524,3.822 C9.524,3.822 43.812,3.822 43.812,3.822 C43.812,3.822 45.717,9.537 45.717,9.537 C45.717,9.537 7.619,9.537 7.619,9.537 C7.619,9.537 9.524,3.822 9.524,3.822 ZM13.334,57.158 C13.334,57.158 12.700,51.444 12.700,51.444 C12.700,51.444 40.637,51.444 40.637,51.444 C40.637,51.444 40.002,57.158 40.002,57.158 C40.002,57.158 13.334,57.158 13.334,57.158 ZM40.849,49.539 C40.849,49.539 12.488,49.539 12.488,49.539 C12.488,49.539 10.371,30.491 10.371,30.491 C10.371,30.491 42.966,30.491 42.966,30.491 C42.966,30.491 40.849,49.539 40.849,49.539 ZM43.178,28.586 C43.178,28.586 10.159,28.586 10.159,28.586 C10.159,28.586 9.524,22.871 9.524,22.871 C9.524,22.871 43.812,22.871 43.812,22.871 C43.812,22.871 43.178,28.586 43.178,28.586 ZM49.526,19.061 C49.526,19.061 3.810,19.061 3.810,19.061 C3.810,19.061 3.810,13.346 3.810,13.346 C3.810,13.346 49.526,13.346 49.526,13.346 C49.526,13.346 49.526,19.061 49.526,19.061 Z" id="path-1" class="cls-2" fill-rule="evenodd"/>
</svg>
