<svg xmlns="http://www.w3.org/2000/svg" xmlns:xlink="http://www.w3.org/1999/xlink" preserveAspectRatio="xMidYMid" width="83" height="62" viewBox="0 0 83 62">
  <defs>
    <style>

      .cls-2 {
        fill: #9f449b;
      }




    </style>
  </defs>
  <path d="M80.885,14.588 C80.885,14.588 67.804,1.505 67.804,1.505 C66.839,0.540 65.529,-0.003 64.163,-0.003 C64.163,-0.003 18.231,-0.003 18.231,-0.003 C16.866,-0.003 15.556,0.540 14.590,1.505 C14.590,1.505 1.510,14.588 1.510,14.588 C0.499,15.596 -0.007,16.929 -0.002,18.261 C0.006,19.471 0.438,20.681 1.301,21.651 C1.301,21.651 37.346,60.038 37.346,60.038 C38.324,61.136 39.725,61.765 41.196,61.765 C42.667,61.765 44.067,61.136 45.046,60.038 C45.046,60.038 81.093,21.651 81.093,21.651 C81.973,20.660 82.406,19.418 82.393,18.181 C82.383,16.876 81.875,15.578 80.885,14.588 ZM46.911,18.020 C46.911,18.020 35.481,18.020 35.481,18.020 C35.481,18.020 41.196,13.257 41.196,13.257 C41.196,13.257 46.911,18.020 46.911,18.020 ZM43.208,11.583 C43.208,11.583 50.245,5.717 50.245,5.717 C50.245,5.717 55.440,10.912 55.440,10.912 C55.440,10.912 48.920,16.343 48.920,16.343 C48.920,16.343 43.208,11.583 43.208,11.583 ZM33.471,16.343 C33.471,16.343 26.951,10.912 26.951,10.912 C26.951,10.912 32.146,5.717 32.146,5.717 C32.146,5.717 39.184,11.583 39.184,11.583 C39.184,11.583 33.471,16.343 33.471,16.343 ZM47.608,20.595 C47.608,20.595 41.196,52.657 41.196,52.657 C41.196,52.657 34.784,20.595 34.784,20.595 C34.784,20.595 47.608,20.595 47.608,20.595 ZM50.233,20.595 C50.233,20.595 62.868,20.595 62.868,20.595 C62.868,20.595 43.917,52.185 43.917,52.185 C43.917,52.185 50.233,20.595 50.233,20.595 ZM50.930,18.020 C50.930,18.020 57.269,12.740 57.269,12.740 C57.269,12.740 62.549,18.020 62.549,18.020 C62.549,18.020 50.930,18.020 50.930,18.020 ZM53.316,5.146 C53.316,5.146 62.360,5.146 62.360,5.146 C62.360,5.146 57.427,9.257 57.427,9.257 C57.427,9.257 53.316,5.146 53.316,5.146 ZM41.196,9.908 C41.196,9.908 35.481,5.146 35.481,5.146 C35.481,5.146 46.911,5.146 46.911,5.146 C46.911,5.146 41.196,9.908 41.196,9.908 ZM24.965,9.257 C24.965,9.257 20.032,5.146 20.032,5.146 C20.032,5.146 29.076,5.146 29.076,5.146 C29.076,5.146 24.965,9.257 24.965,9.257 ZM25.123,12.740 C25.123,12.740 31.462,18.020 31.462,18.020 C31.462,18.020 19.843,18.020 19.843,18.020 C19.843,18.020 25.123,12.740 25.123,12.740 ZM32.159,20.595 C32.159,20.595 38.475,52.185 38.475,52.185 C38.475,52.185 19.524,20.595 19.524,20.595 C19.524,20.595 32.159,20.595 32.159,20.595 ZM32.710,47.576 C32.710,47.576 7.374,20.595 7.374,20.595 C7.374,20.595 16.524,20.595 16.524,20.595 C16.524,20.595 32.710,47.576 32.710,47.576 ZM65.868,20.595 C65.868,20.595 75.021,20.595 75.021,20.595 C75.021,20.595 49.680,47.578 49.680,47.578 C49.680,47.578 65.868,20.595 65.868,20.595 ZM66.190,18.020 C66.190,18.020 59.255,11.085 59.255,11.085 C59.255,11.085 65.172,6.155 65.172,6.155 C65.172,6.155 77.035,18.020 77.035,18.020 C77.035,18.020 66.190,18.020 66.190,18.020 ZM17.213,6.149 C17.213,6.149 23.137,11.085 23.137,11.085 C23.137,11.085 16.202,18.020 16.202,18.020 C16.202,18.020 5.163,18.020 5.163,18.020 C5.163,18.020 17.213,6.149 17.213,6.149 Z" id="path-1" class="cls-2" fill-rule="evenodd"/>
</svg>
