<svg xmlns="http://www.w3.org/2000/svg" xmlns:xlink="http://www.w3.org/1999/xlink" preserveAspectRatio="xMidYMid" width="70" height="62" viewBox="0 0 70 62">
  <defs>
    <style>

      .cls-2 {
        fill: #9f449b;
      }


    </style>
  </defs>
  <path d="M64.200,35.562 C63.934,35.826 39.894,59.599 39.894,59.599 C37.293,62.171 33.086,62.171 30.485,59.599 C30.485,59.599 8.531,37.888 6.179,35.562 C-2.048,27.424 -2.048,14.233 6.179,6.096 C14.164,-1.802 26.920,-1.968 35.189,5.463 C43.459,-1.968 56.218,-1.802 64.200,6.096 C72.427,14.233 72.427,27.424 64.200,35.562 ZM61.063,9.196 C54.811,3.011 44.754,2.794 38.172,8.709 C38.172,8.709 35.189,11.388 35.189,11.388 C35.189,11.388 32.208,8.709 32.208,8.709 C25.625,2.794 15.571,3.011 9.317,9.196 C2.829,15.610 2.829,26.046 9.317,32.460 C9.317,32.460 33.623,56.497 33.623,56.497 C34.484,57.353 35.893,57.353 36.756,56.497 C36.756,56.497 61.063,32.460 61.063,32.460 C67.550,26.046 67.550,15.610 61.063,9.196 ZM20.349,13.205 C20.349,13.205 20.347,13.205 20.347,13.205 C16.402,13.205 13.202,16.402 13.202,20.342 C13.202,20.342 13.202,20.344 13.202,20.344 C13.202,20.951 12.710,21.443 12.102,21.443 C11.494,21.443 11.003,20.951 11.003,20.344 C11.003,15.192 15.184,11.015 20.340,11.011 C20.345,11.011 20.345,11.009 20.349,11.009 C20.957,11.009 21.448,11.500 21.448,12.107 C21.448,12.714 20.957,13.205 20.349,13.205 Z" id="path-1" class="cls-2" fill-rule="evenodd"/>
</svg>
