<svg xmlns="http://www.w3.org/2000/svg" xmlns:xlink="http://www.w3.org/1999/xlink" preserveAspectRatio="xMidYMid" width="58" height="58" viewBox="0 0 58 58">
  <defs>
    <style>

      .cls-2 {
        fill: #ffffff;
      }
    </style>
  </defs>
  <path d="M57.171,0.290 C56.872,0.095 56.529,-0.001 56.187,-0.001 C55.836,-0.001 55.486,0.099 55.182,0.304 C55.182,0.304 0.807,36.554 0.807,36.554 C0.247,36.925 -0.061,37.580 0.010,38.250 C0.079,38.918 0.515,39.495 1.139,39.743 C1.139,39.743 15.321,45.418 15.321,45.418 C15.321,45.418 21.988,57.086 21.988,57.086 C22.307,57.645 22.900,57.993 23.543,58.000 C23.550,58.000 23.555,58.000 23.562,58.000 C24.198,58.000 24.789,57.664 25.116,57.118 C25.116,57.118 28.881,50.842 28.881,50.842 C28.881,50.842 46.452,57.869 46.452,57.869 C46.668,57.957 46.896,58.000 47.124,58.000 C47.432,58.000 47.739,57.922 48.013,57.766 C48.491,57.497 48.822,57.026 48.912,56.484 C48.912,56.484 57.975,2.109 57.975,2.109 C58.093,1.398 57.778,0.683 57.171,0.290 ZM5.685,37.658 C5.685,37.658 47.689,9.653 47.689,9.653 C47.689,9.653 17.149,42.345 17.149,42.345 C16.988,42.250 16.845,42.122 16.668,42.052 C16.668,42.052 5.685,37.658 5.685,37.658 ZM18.468,43.620 C18.464,43.613 18.459,43.609 18.456,43.602 C18.456,43.602 52.789,6.853 52.789,6.853 C52.789,6.853 23.520,52.459 23.520,52.459 C23.520,52.459 18.468,43.620 18.468,43.620 ZM45.707,53.666 C45.707,53.666 30.226,47.475 30.226,47.475 C29.856,47.330 29.474,47.280 29.095,47.259 C29.095,47.259 52.934,10.305 52.934,10.305 C52.934,10.305 45.707,53.666 45.707,53.666 Z" id="path-1" class="cls-2" fill-rule="evenodd"/>
</svg>
