<svg xmlns="http://www.w3.org/2000/svg" xmlns:xlink="http://www.w3.org/1999/xlink" preserveAspectRatio="xMidYMid" width="44" height="63" viewBox="0 0 44 63">
  <defs>
    <style>

      .cls-2 {
        fill: #9f449b;
      }
    </style>
  </defs>
  <path d="M37.345,62.905 C37.345,62.905 5.897,62.907 5.897,62.907 C2.639,62.907 -0.000,60.268 -0.000,57.010 C-0.000,57.010 -0.000,5.907 -0.000,5.907 C-0.000,2.649 2.639,0.010 5.897,0.010 C5.897,0.010 37.345,0.008 37.345,0.008 C40.602,0.008 43.241,2.648 43.241,5.905 C43.241,5.905 43.241,57.008 43.241,57.008 C43.241,60.265 40.602,62.905 37.345,62.905 ZM39.310,5.905 C39.310,4.820 38.429,3.939 37.345,3.939 C37.345,3.939 5.897,3.941 5.897,3.941 C4.812,3.941 3.931,4.822 3.931,5.907 C3.931,5.907 3.931,9.837 3.931,9.837 C3.931,9.837 39.310,9.836 39.310,9.836 C39.310,9.836 39.310,5.905 39.310,5.905 ZM39.310,11.801 C39.310,11.801 3.931,11.803 3.931,11.803 C3.931,11.803 3.931,51.106 3.931,51.106 C3.931,51.106 39.310,51.104 39.310,51.104 C39.310,51.104 39.310,11.801 39.310,11.801 ZM39.310,53.069 C39.310,53.069 3.931,53.072 3.931,53.072 C3.931,53.072 3.931,57.010 3.931,57.010 C3.931,58.095 4.812,58.976 5.897,58.976 C5.897,58.976 37.345,58.974 37.345,58.974 C38.429,58.974 39.310,58.093 39.310,57.008 C39.310,57.008 39.310,53.069 39.310,53.069 ZM22.603,57.001 C22.603,57.001 20.638,57.001 20.638,57.001 C20.095,57.001 19.655,56.561 19.655,56.017 C19.655,55.474 20.095,55.035 20.638,55.035 C20.638,55.035 22.603,55.035 22.603,55.035 C23.147,55.035 23.586,55.474 23.586,56.017 C23.586,56.561 23.147,57.001 22.603,57.001 ZM18.672,5.905 C18.672,5.905 24.569,5.905 24.569,5.905 C25.112,5.905 25.552,6.345 25.552,6.887 C25.552,7.431 25.112,7.870 24.569,7.870 C24.569,7.870 18.672,7.870 18.672,7.870 C18.129,7.870 17.690,7.431 17.690,6.887 C17.690,6.345 18.129,5.905 18.672,5.905 Z" id="path-1" class="cls-2" fill-rule="evenodd"/>
</svg>
