<svg xmlns="http://www.w3.org/2000/svg" xmlns:xlink="http://www.w3.org/1999/xlink" preserveAspectRatio="xMidYMid" width="153" height="154" viewBox="0 0 153 154">
  <defs>
    <style>

      .cls-2 {
        fill: #ffffff;
      }
    </style>
  </defs>
  <path d="M153.269,77.844 C153.269,77.844 77.830,77.844 77.830,77.844 C77.830,77.844 77.830,153.284 77.830,153.284 C77.830,153.284 75.436,153.284 75.436,153.284 C75.436,153.284 75.436,77.844 75.436,77.844 C75.436,77.844 -0.003,77.844 -0.003,77.844 C-0.003,77.844 -0.003,75.449 -0.003,75.449 C-0.003,75.449 75.436,75.449 75.436,75.449 C75.436,75.449 75.436,0.010 75.436,0.010 C75.436,0.010 77.830,0.010 77.830,0.010 C77.830,0.010 77.830,75.449 77.830,75.449 C77.830,75.449 153.269,75.449 153.269,75.449 C153.269,75.449 153.269,77.844 153.269,77.844 Z" id="path-1" class="cls-2" fill-rule="evenodd"/>
</svg>
