<svg xmlns="http://www.w3.org/2000/svg" xmlns:xlink="http://www.w3.org/1999/xlink" preserveAspectRatio="xMidYMid" width="175" height="189" viewBox="0 0 175 189">
  <defs>
    <style>

      .cls-2 {
        fill: #9f449b;
        stroke: #9f449b;
        stroke-linejoin: round;
        stroke-width: 4px;
      }
    </style>
  </defs>
  <path d="M67.373,176.277 C53.960,168.219 40.410,160.396 26.726,152.809 C13.041,145.220 6.334,133.604 6.605,117.958 C6.876,102.313 6.876,86.668 6.605,71.022 C6.334,55.376 13.041,43.760 26.726,36.172 C40.410,28.583 53.960,20.761 67.373,12.704 C80.787,4.646 94.201,4.646 107.615,12.704 C121.029,20.761 134.578,28.583 148.263,36.172 C161.948,43.760 168.655,55.376 168.384,71.022 C168.113,86.668 168.113,102.313 168.384,117.958 C168.655,133.604 161.948,145.220 148.263,152.809 C134.578,160.396 121.029,168.219 107.615,176.277 C94.201,184.334 80.787,184.334 67.373,176.277 Z" id="path-1" class="cls-2" fill-rule="evenodd"/>
</svg>
