<svg xmlns="http://www.w3.org/2000/svg" xmlns:xlink="http://www.w3.org/1999/xlink" preserveAspectRatio="xMidYMid" width="180" height="194" viewBox="0 0 180 194">
  <defs>
    <style>

      .cls-2 {
        fill: #a957a5;
        stroke: #a957a5;
        stroke-linejoin: round;
        stroke-width: 4px;
        fill-opacity: 0.1;
      }
    </style>
  </defs>
  <path d="M69.771,179.228 C56.283,171.126 42.659,163.260 28.899,155.630 C15.139,148.000 8.395,136.320 8.667,120.587 C8.940,104.857 8.940,89.124 8.667,73.393 C8.395,57.661 15.139,45.980 28.899,38.350 C42.659,30.720 56.283,22.855 69.771,14.753 C83.259,6.651 96.747,6.651 110.235,14.753 C123.723,22.855 137.347,30.720 151.107,38.350 C164.867,45.980 171.611,57.661 171.339,73.393 C171.066,89.124 171.066,104.857 171.339,120.587 C171.611,136.320 164.867,148.000 151.107,155.630 C137.347,163.260 123.723,171.126 110.235,179.228 C96.747,187.330 83.259,187.330 69.771,179.228 Z" id="path-1" class="cls-2" fill-rule="evenodd"/>
</svg>
