<svg xmlns="http://www.w3.org/2000/svg" xmlns:xlink="http://www.w3.org/1999/xlink" preserveAspectRatio="xMidYMid" width="68" height="60" viewBox="0 0 68 60">
  <defs>
    <style>

      .cls-2 {
        fill: #ffffff;
      }
    </style>
  </defs>
  <path d="M62.687,18.853 C62.687,18.853 57.038,20.157 57.038,20.157 C57.038,20.157 57.038,38.029 57.038,38.029 C57.038,43.638 50.620,48.594 33.797,48.594 C16.974,48.594 10.556,43.638 10.556,38.029 C10.556,38.029 10.556,20.157 10.556,20.157 C10.556,20.157 4.905,18.853 4.905,18.853 C2.013,18.187 -0.008,15.647 -0.008,12.676 C-0.008,9.705 2.013,7.165 4.907,6.498 C4.907,6.498 32.371,0.160 32.371,0.160 C32.860,0.050 33.331,-0.001 33.797,-0.001 C34.263,-0.001 34.734,0.050 35.195,0.154 C35.195,0.154 62.689,6.498 62.689,6.498 C65.581,7.165 67.602,9.705 67.602,12.676 C67.602,15.647 65.581,18.187 62.687,18.853 ZM14.782,38.029 C14.782,40.365 21.120,44.368 33.797,44.368 C46.474,44.368 52.812,40.365 52.812,38.029 C52.812,38.029 52.812,21.133 52.812,21.133 C52.812,21.133 35.223,25.192 35.223,25.192 C34.734,25.301 34.263,25.353 33.797,25.353 C33.331,25.353 32.860,25.301 32.399,25.198 C32.399,25.198 14.782,21.133 14.782,21.133 C14.782,21.133 14.782,38.029 14.782,38.029 ZM61.739,10.617 C61.739,10.617 34.272,4.278 34.272,4.278 C34.116,4.243 33.957,4.225 33.797,4.225 C33.637,4.225 33.478,4.243 33.321,4.278 C33.321,4.278 5.855,10.617 5.855,10.617 C4.897,10.838 4.218,11.692 4.218,12.676 C4.218,13.660 4.897,14.514 5.855,14.735 C5.855,14.735 33.321,21.073 33.321,21.073 C33.478,21.109 33.637,21.127 33.797,21.127 C33.957,21.127 34.116,21.109 34.272,21.073 C34.272,21.073 61.739,14.735 61.739,14.735 C62.697,14.514 63.376,13.660 63.376,12.676 C63.376,11.692 62.697,10.838 61.739,10.617 ZM61.263,42.255 C61.263,42.255 61.263,23.240 61.263,23.240 C61.263,22.072 62.209,21.127 63.376,21.127 C64.543,21.127 65.489,22.072 65.489,23.240 C65.489,23.240 65.489,42.255 65.489,42.255 C65.489,43.422 64.543,44.368 63.376,44.368 C62.209,44.368 61.263,43.422 61.263,42.255 ZM63.376,46.481 C65.710,46.481 67.602,52.598 67.602,54.931 C67.602,57.266 65.710,59.157 63.376,59.157 C61.043,59.157 59.151,57.266 59.151,54.931 C59.151,52.598 61.043,46.481 63.376,46.481 Z" id="path-1" class="cls-2" fill-rule="evenodd"/>
</svg>
